<?xml version="1.0" encoding="utf-8" ?>
<svg baseProfile="full" height="300mm" version="1.1" viewBox="0,0,200,300" width="200mm" xmlns="http://www.w3.org/2000/svg" xmlns:ev="http://www.w3.org/2001/xml-events" xmlns:xlink="http://www.w3.org/1999/xlink"><defs /><rect fill="#222222" height="300" width="200" x="0" y="0" /><text fill="#FFFFFF" style="font-size:12px; font-family:Arial; font-weight:bold;" x="10" y="20">Over 10km Tracks</text><text fill="#FFFFFF" style="font-size:4px; font-family:Arial" x="10" y="280">ATHLETE</text><text fill="#FFFFFF" style="font-size:9px; font-family:Arial" x="10" y="290">dou</text><text fill="#FFFFFF" style="font-size:4px; font-family:Arial" x="65" y="280">SPECIAL TRACKS</text><rect fill="yellow" height="2.6" width="2.6" x="65" y="283" /><text fill="#FFFFFF" style="font-size:3px; font-family:Arial" x="70" y="285.5">Over 20.0 km</text><rect fill="red" height="2.6" width="2.6" x="65" y="287" /><text fill="#FFFFFF" style="font-size:3px; font-family:Arial" x="70" y="289.5">Over 40.0 km</text><text fill="#FFFFFF" style="font-size:4px; font-family:Arial" x="120" y="280">STATISTICS</text><text fill="#FFFFFF" style="font-size:3px; font-family:Arial" x="120" y="285">Number: 6</text><text fill="#FFFFFF" style="font-size:3px; font-family:Arial" x="120" y="290">Weekly: 3.0</text><text fill="#FFFFFF" style="font-size:3px; font-family:Arial" x="141" y="285">Total: 1587.7 km</text><text fill="#FFFFFF" style="font-size:3px; font-family:Arial" x="141" y="290">Avg: 264.6 km</text><text fill="#FFFFFF" style="font-size:3px; font-family:Arial" x="167" y="285">Min: 113.2 km</text><text fill="#FFFFFF" style="font-size:3px; font-family:Arial" x="167" y="290">Max: 448.7 km</text><polyline fill="none" points="20.812504514651664,104.17955892266218 20.70927152776676,104.19792396569733 20.636593131828704,104.1541302237556 20.59209615472537,104.22405864897269 20.514968061077525,104.22723717665826 20.407582022997303,104.27879950854617 20.387410060042384,104.27562103318542 20.370204562230356,104.28621593851335 20.51585800061912,104.21876109565983 20.34795607367778,104.31093724491393 20.401055799688038,104.28021216322782 20.36338169240662,104.29116021540199 20.544632712479142,104.22759034620276 20.6279903829236,104.16578506971496 20.696219081150048,104.19297954162721 20.838609407885087,104.1590747091559 20.906838106113355,104.0485282789698 21.0940220564662,103.88323112916555 21.20823096436834,103.79563423054492 21.243235253024977,103.8019921524401 21.321846579243356,103.74441716660226 21.57191959057127,103.9503399985017 21.847504202105483,104.06230264762098 21.940057914485806,104.3300078336822 22.092830869210957,104.50269732391325 22.28446451727541,104.52988887103197 22.223948628412472,104.78554850045407 22.09846715297863,104.83992644947216 21.952220421560924,104.91690141333288 21.62323943749834,105.17641316195886 21.464533552491048,105.18982951173962 21.36070727258084,105.31198626531614 21.296631625551527,105.70066727132166 21.29722491857865,105.701373278353 21.280612713793744,105.76103029836963 21.310574011709832,105.7638542711818 21.31294718382196,105.7638542711818 21.301081323261315,105.7730321652607 21.303751141887915,105.70560931720934 21.306420960512696,105.81927422295848 20.774830407368427,105.92940523286507 20.571627545257797,106.0 20.954301548357762,105.92940523286507 21.248278243763707,105.89551918020106 21.30760754657058,105.79950670921698 21.298114858120243,105.701020274857 21.311760597765897,105.76244228509313 21.314133769878026,105.75679433438086 21.302861202344502,105.560874747036 21.43457225457496,105.26220619766877 21.487671980587038,105.19371318122148 21.49835125509162,105.19936214642257 21.58259886507767,105.17817847442188 21.921962477128545,104.93031887406869 22.10143361811788,104.83710164418949 22.23403460988993,104.77672082229765 22.28505781030435,104.5373047065591 22.492413723612117,104.5468393264423 22.64607661788068,104.69656436646096 22.863815159180376,104.6139339791448 22.889030112872206,104.49987221457422 23.09608937966732,104.3607324269276 23.14740922659439,104.22617766778899 23.29484254406634,104.31482200389382 23.692645519384314,104.04782189945695 23.98454568919078,104.13046722126478 24.28742178001812,104.07925563356093 24.880418161566922,104.40205123234864 25.03971733960134,104.3607324269276 25.448792882451016,103.86203855583085 26.148878655567387,103.52011187910216 26.806543977174442,103.26399563869518 27.601853281294098,102.52979734531505 27.643977086285304,102.62308329510142 27.301350362578887,102.10538182278151 27.1726057754895,101.67914140298831 27.196337496612614,101.0029044791986 27.22807867361371,100.08358141460235 27.535404462150836,99.10844958410803 27.561212708871608,98.63686739223613 27.692627114587594,97.71720081674994 27.921934869935285,96.97815701053742 28.00173278220791,96.59228382513061 28.06046879198766,95.98399394482067 28.165778304466585,95.89192574852132 28.561208107672428,95.94362591710251 29.34524484425856,96.34763670012285 29.98926442622178,96.47297207143288 30.789616721078346,96.74132858474377 31.387062800336935,97.11656409122452 31.913610362744294,97.42981572151257 32.374599045549985,97.6379248168355 33.30784897869307,97.7610848781726 33.78455992674026,98.0279149837811 34.24673519560383,98.37504304573872 34.977078913148944,98.48614416954342 35.58846737856766,98.63509838257164 36.43954622732599,98.68993721557263 37.262443657249605,98.75432738873155 38.6018026681013,98.72248626045416 39.59171208542648,99.00833719513935 40.5353446465615,99.33094936191492 41.679806897695016,99.23897999434189 42.346074968208995,99.33625520426426 43.071079048504544,99.60082843540954 43.861048715371,99.81586608955877 44.740902275989356,100.03407172407151 45.6824583115249,100.19674347359683 46.00609965833246,100.33323975041753 45.974358481331365,100.36188199416529 46.053266454064214,99.80914638710033 45.951813346264316,98.80350360373177 46.048223463325485,98.11779690569233 46.44899290378271,96.61423385759872 46.7830168785822,95.79950070441396 47.19268571446082,95.22434984997403 47.54332189404522,94.30261175771307 47.60621095502029,93.08926997511958 47.70054454648198,92.11052608972386 47.84085834761936,91.41093033467382 47.8361120033951,90.73174956431626 47.93756511119318,89.95095117706342 47.829289133571365,89.14085557967519 47.702621072081456,88.40083274474819 47.48221271215334,87.41315011153665 47.08826614151985,86.4457532528777 47.07224722976207,85.7264018194669 47.24815861258321,84.91697556328927 47.783308923895675,83.98861006362563 47.852130915152884,83.54209898942872 47.91917302732327,83.43437206781846 47.697281434828255,83.4205059530284 47.7601704958015,83.55205376252343 47.9328187669671,83.61675900433488 47.92569925063253,83.6028937096703 47.91501997612613,83.6028937096703 47.819203152095724,83.59827193092815 47.69787472785538,83.52610017962888 47.84649463138521,83.40841749438414 47.91768979475273,83.44112733192242 47.87675257581759,83.45499335397903 48.103983805565804,82.75699280196864 48.266842741768414,82.10898732302371 48.30629672813484,81.79133661169635 48.32201899337815,80.98087649920717 48.44453400367274,80.53891150055324 48.302736969966645,80.06164611780969 48.307483314190904,79.91393153407967 48.40774983593474,79.50990480300561 48.447797115328285,79.23043675037775 48.653373149551044,79.04850185433588 48.867551932682545,78.69741894956564 48.992143468574795,78.50868640894123 49.19356645160224,78.08096843762428 49.47656722599095,77.62362537817398 49.724860358233855,77.36892272421346 50.10575448225063,77.222859919666 50.4646967642293,77.04044977873968 51.00311018719731,76.57867564338312 51.55398276375308,76.29715885221754 52.16922763385628,75.73868135115026 52.6272498515209,75.39185375798775 52.8871121978118,74.99329219558263 53.17426602339583,74.7337358656514 53.52193573783916,74.29194038935543 53.801376754057856,74.42174002107004 54.205705952683275,74.52229529508077 55.03305308031668,74.2698311125821 55.85891697538136,74.25093112041418 56.50234326431564,74.34043759873566 57.12263112515575,74.35933703856335 57.56819418923078,74.33366229945659 58.00337462531752,74.16106541092654 59.34896321296401,73.30506930468755 59.77257443500275,72.9836522850378 60.57885966013964,72.16265488253453 61.04845109185044,71.91677661846643 61.91910861053475,71.75760539911585 62.767814287179135,71.4392380939878 63.017294005479926,71.38641161144551 63.121120285390134,71.40497237152408 63.03716932192037,71.23649364764765 62.77226398488892,70.35718378303454 62.29110333913013,69.45119056344652 62.02590135558603,68.46418395533033 62.103622742260995,68.22015153892539 62.03420745797848,68.18013264623482 61.93779734091913,68.30340344530077 61.587161161332915,68.29590014779592 61.35162382919225,68.03970505485358 60.658064279385144,67.70629761158489 60.301791816033074,67.48829446310447 59.864831500864966,67.13981441953547 59.92772056184003,66.73695755961421 60.192329252355194,66.471336002714 60.241275927170136,66.17208181104252 60.391082416757854,65.91213225568663 60.704044489060834,65.51483495534762 60.65539446076036,65.14896087315265 60.83011925752362,64.5551712544293 61.762775897639585,64.84242251451678 61.91970190356187,64.71507661123974 62.06713522103564,64.5498051570471 62.09739316546802,64.22746420532144 62.14604319376849,64.04248731706298 62.21723835713601,63.843186273994434 62.97843331214062,63.26023621307991 63.238592304947815,62.72585653493502 63.31305057996906,62.09221022574525 63.52455954447396,61.474904379908594 63.58270226122477,60.965998109056045 63.44387169265792,60.39610797549426 63.14603859256931,59.88307942396523 62.92474029310142,59.47997582349694 62.81705760850855,59.03166163397714 62.94876866073719,58.2237401531022 62.90634820923151,57.82866189940887 63.01314095428279,57.52245870289835 63.2466017608258,57.4242089564666 63.58596537287849,57.387633418382165 63.782938658196144,57.19470806645495 63.81171337005617,56.73386072380413 63.88290853342369,56.4670033856853 64.30295999729424,56.15384639076228 64.52129183161924,55.75921520134807 64.71796847042242,55.4212264322955 64.57023850643418,55.200185726142536 64.53345433869436,55.02972933058527 64.55570282724875,54.685557517248526 64.45899606367311,54.46446295819237 64.51090920362913,54.20314851134776 64.89091338810431,53.92565662010975 65.0617817801849,53.727124771948866 65.39343258287226,53.393935279874995 65.46314451367107,53.07794572947182 65.41508777839772,52.777365855394464 65.52781345372932,52.575525995642465 65.79509196287108,52.4692134481561 66.24035838043346,52.43006362639562 66.42754233078813,52.19910524831289 66.43851825180718,51.827307698584946 66.39253804213149,51.32899111759684 66.29345810644554,51.02140924659648 66.54086129914685,50.50894257557411 66.90870297654692,50.2070279691834 67.04664360557217,49.91083468974921 67.17153178797889,49.551697180804695 67.40024625029764,49.32483247703635 67.50881887443393,48.85774650651183 67.86746450989631,48.223702351024485 68.15817809364853,48.038822548357075 68.38125627220143,47.84206053758817 68.39252883973313,47.180816996200974 68.26912388989513,46.442772126215914 68.38689255596728,46.33804213902249 68.96891301649703,45.8150573108328 69.91788521488525,45.2754199494359 70.09498318376063,45.066954974681494 70.33348698104237,44.30606085542172 70.90097176238669,43.97722857252279 71.79476770916335,43.81117797034926 72.71110879100706,43.53993018685537 73.07153430555627,43.60044974898983 73.04720929140422,43.452030550156906 73.03208031918984,43.11770017252729 73.14539928754857,42.841345059022615 73.3391094612125,42.744416559274214 73.41683084788747,42.519198821057216 73.50285833695852,42.41252978758166 73.46726075527295,42.11340377625811 73.45658148076836,41.962387842988164 73.45242842957305,41.78397017748307 73.47705009023593,41.58211110227421 73.46399764361922,41.441522628740586 73.46993057390137,41.38708788124836 73.45302172260017,41.3016485647081 73.43344305267419,41.16357058597782 73.47230374601168,41.022962437863725 73.46459093664635,40.80374475180997 73.56485745839018,40.62633972680919 73.68054959886285,40.419714506349465 73.76806032050081,40.207665399118014 73.77280666472689,40.07386476885745 74.17031299352857,39.81273792921638 74.61617270411807,39.707054420416625 75.1869205971143,39.53355222621167 75.504925660156,39.54004521330489 75.78051027169204,39.741320814030814 76.33197614127675,39.80444208932272 76.65828730671274,39.96097709820356 76.77724255883913,39.925270525480755 76.75143431211836,39.26011251338605 77.12372568722822,39.28175773013959 77.56632228616218,38.49304904596079 78.22161443565892,38.42196122117798 78.2411931055849,38.37649299378336 78.3284071807102,38.17584714697341 78.78019982158185,38.10908249841759 78.80363489618867,38.12929249560989 78.8077879473858,38.123518224663485 78.80897453344187,38.13037517016937 78.80007513802047,38.1296533871739 78.799778491506,38.13434497352455 78.78998915654302,38.147697909692624 78.77486018432865,38.12243554761699 78.80541477527368,37.85716783362773 78.91636057152027,37.58537930916668 79.604580484076,37.65251662577043 79.65085734026434,37.58754505264028 79.5850018141482,37.04858739357087 79.49452462736917,36.275177235262845 79.54762435338125,35.678915057203085 79.48265876680853,34.7002952806331 79.52329933923102,34.08131208643272 79.27530285349894,34.0 79.29873792810758,34.032886489196244" stroke="red" stroke-linecap="round" stroke-linejoin="round" stroke-width="0.5"><title>2025-04-06 429.6km</title><desc>1743899230523</desc></polyline><polyline fill="none" points="170.43176304450026,91.93090305631904 171.07441068907065,92.34995587270532 170.9818589998904,93.10452831645034 172.25411883984634,94.24558663140851 172.13679979722656,94.4790436504727 170.71593583661888,94.2672318180812 169.49060361371812,93.54828435672698 168.30568128327286,93.12926770237664 167.16377593511424,93.10607452936074 166.55110982366023,92.55406557934748 165.85762392728793,92.04997100997389 165.16153094109177,91.87987362074091 165.8002679509009,92.01904436692985 165.08201470108907,91.87832727127807 163.63899047688028,91.99894201200823 163.1566788572236,91.81956586415436 162.47231777528214,91.46235301166053 161.66411992612848,91.2783306824258 160.98888365861785,91.39895063584936 160.21848861208127,91.86441011837724 158.62946735706646,91.7839996284929 158.15236991707934,92.94372123367248 157.29854799580062,93.68434608625012 157.19947858202795,93.44932953436182 156.90227034073177,93.12153664900688 155.77470398667356,93.31171931248355 155.145091791288,93.25914875540548 154.4190172719682,92.73343223869324 154.10877358148718,92.85558579254575 153.99275808379025,92.58499103073973 153.69424629757123,92.73961725458867 153.40876996052975,92.72106219864145 153.34228916971915,93.01330144996064 153.0633305572701,93.0210325635835 152.94210087989632,93.34418926302897 152.67357062679366,92.61746268057414 151.41956041568483,91.40049703870136 150.75475250751333,90.91955744683855 149.86703841836425,90.7123307499669 149.32215664264368,90.78810803522083 147.972987652538,90.13393539252866 147.43983778107213,89.83390263818364 146.83629648404894,89.8122505390138 146.18322048013943,90.09217864513266 145.75305065720022,90.22827424820207 144.86272947822,90.89326766409431 144.25658109135838,91.2937948375884 144.31002643299144,92.20305687860673 143.80034037006408,92.26027035582229 143.3401890140085,93.07051158884951 143.22547706122714,93.4354139559191 143.24372669008153,93.97038060286468 142.85135966976668,94.65838545055612 142.88264474779862,95.56124348181129 141.50219067965372,96.3589253871587 140.7435275373864,96.65727138685452 139.69678096823918,97.89387044616342 139.08150776695402,98.10253568750431 138.44928848173004,98.46730591815049 137.95263786798023,98.14890531571746 137.12619038997946,98.6373226702799 136.1537458811581,99.33282409478943 135.29731687004096,99.30964127456264 134.96100228120486,98.82742984871766 134.23101712713105,98.6156842900391 132.0319368504861,98.62650348437091 130.11051164137461,98.42711983652225 129.68816308795795,98.64968744386078 129.06897925190424,98.18909220170735 127.83582575948822,97.47498483835352 126.52706666183803,97.18593094998505 125.81924177137262,97.0715443284771 125.9078828257916,97.10709702789427 125.89093674186006,97.13028352199217 125.96393525727035,97.23075788270762 126.69913459100644,97.17201911387747 126.99764637723274,96.53515125980994 124.9471702212395,94.97841204827091 124.0164391497965,94.61664230729002 123.07658326392993,94.52078720724876 122.22536843248236,94.29196913297346 121.9164282869242,95.09899986830169 121.5514357098873,95.93535581440028 120.04975196436862,95.95699836837412 118.86743672375451,95.13764958909724 117.68903211789439,95.21494870811784 115.76369627402892,94.42029324694158 114.6061483868616,93.8358678071736 115.29050946880307,92.45046481532336 115.74414310025895,92.26954819478033 115.96965637107496,91.09739878722394 116.18213419270614,90.2468326361377 116.2864177861411,89.63129953231964 116.3555056667974,89.20752469430408 116.3698446608978,88.95232557452346 116.25382916319359,88.76981665898802 116.63837491400045,88.50068896319317 117.30578991201037,88.37076337972849 117.92888438280352,88.16968567359072 118.38773219393624,87.83867448727779 118.89220407719404,87.885078400559 118.99779121555912,87.5540604238804 118.99648767063627,87.09000323399505 118.96389904768876,86.60582035124207 119.33931998406479,86.1092446321154 119.40710431979824,85.90039906558923 119.84509541224543,85.7673550648924 120.1175363000948,85.54767496790191 120.18662418075837,85.34036802310311 120.32479994206369,85.04177869374689 120.61418691385916,85.15781158029858 120.77321939385001,85.21195992843423 120.92312705942459,84.89789656602261 121.17471122858842,84.99072391608206 121.31679762465501,84.99381815037941 121.59445269218122,84.94276319613982 122.12499547380139,84.71997574146553 122.43654270919797,84.61631646946898 122.41959662526642,84.46005252022678 123.00358474851964,84.48171297476165 123.26559727703716,84.20167163191036 123.68142810586869,84.077894650296 123.54455588948622,83.87675469835358 123.11568961146986,82.45631412100465 123.08701162326906,81.23536161010907 122.59296809935768,80.04370727088917 122.420900170182,78.65847373685665 122.0011587065892,77.84739002857532 121.85776876561431,76.77309535449785 122.56037947641016,76.80870011558181 123.0700655393448,76.17399281759754 123.2317051091668,74.97261349274413 123.96690444291016,74.97880643700773 125.51030162580719,74.68773506156322 125.93656081398512,74.30066258064653 126.7916862801867,74.25111652163832 127.2335880073806,74.0869939343338 127.48517217655171,74.23718166058006 127.77195205850876,74.2573097887107 128.33769055291486,74.37343303327361 129.30231379222823,74.62425591671399 130.0844407430195,75.08563428941943 131.5026976137815,75.4324320701553 132.03975812000135,75.09647185157519 132.62504978817014,74.88126724304857 133.23901944453974,74.56542132739742 133.49451424846484,74.44775139851299 133.57011985371355,74.50968306472714 133.10214722815726,74.49884504314468 132.63678169243212,74.86733301638287 131.98631277835375,75.12279161006336 131.5053047036272,75.42778751441529 130.0740123836731,75.07789316840353 129.28927834305068,74.61341798484409 128.5697215483233,74.30995244696805 128.00659014374833,74.2201501446898 127.66245428540424,74.3656915139436 127.33917514574568,74.11486394483109 126.91291595756047,74.25576147220363 126.50360285331408,74.26969631454904 125.50769453597604,74.68928332975611 123.9577796284866,74.97880643700773 123.01270956295048,75.21723268445021 123.05703009015997,76.29474425194894 122.48998805083829,76.8412087305287 121.83300141217478,76.39536964280342 121.22163884563633,75.52687103218523 120.63113299778342,75.33489607243155 119.57135097946593,75.12898448713622 118.57413911721233,74.48955530360126 117.88456385559402,73.47074269544828 116.00615562877647,73.48003311885441 115.09497773110343,73.56209825473888 114.42365209834679,73.32054665157375 114.0,72.38062304627238 114.44320527210948,73.3530634591234 115.08715646159544,73.5682918301518 116.01397689828445,73.4893235360214 117.61733714740694,73.26015809199635 118.27562733098603,74.02815706121055 119.03037983849936,74.96951701957823 120.29872904370131,75.40920927588377 120.95310859253368,75.29464292066768 121.73132490857097,76.29784042872689 122.47825614657631,76.85978504766445 122.97099612557213,75.87675403090452 123.31773907375464,74.88436373596414 123.89390592750715,74.71715212753588 123.8782633884839,73.34686978738591 124.59912372813415,73.3700960421038 125.15443386320112,72.74607045244284 125.03059709598892,71.86495414299861 124.21457797733456,70.7220518506092 123.59930477603484,70.37358724569913 124.16113263569423,69.91205172147329 124.05554549733642,69.48147784918274 123.93040518520866,69.09425968064443 123.44027229604399,68.07659863905337 122.96969258065656,67.14251504281856 121.5370967157869,65.24781995912963 121.85776876561431,64.60483495906647 121.71568236954772,63.7077046847744 122.60470000361966,63.740244106638784 123.04008400622843,63.90913796979021 122.8523735380295,63.12508111214811 122.67900206394552,62.53003592920777 123.16392077343335,61.8667782751163 123.44027229604399,61.41425711054035 123.72965926783945,61.135298319870344 123.25516891769075,60.75249569589232 123.21997320490482,60.50452072096596 123.60582250062726,60.489022137161555 124.07509867110639,60.70755056212238 124.08031285077595,60.454925191562324 124.54698193141667,60.529318418859475 124.8415830828817,60.63005860860994 124.97193757467903,60.90747779380399 125.46858818842884,60.42237802857835 125.55853278777067,59.701671188796354 125.7723141543247,60.28598908264212 126.14643154578516,59.749719481931606 126.70043813592929,59.864414731459874 127.35612122966995,60.10620159537939 127.24271282181144,59.84116577138866 127.61943730311032,59.90936260991202 127.58033095557039,59.69392144844096 127.73023862113769,59.512576282055306 127.75370242965437,59.35292856561864 128.36245790636167,59.19482900751427 128.09653474309016,59.01037723450463 128.22167505521065,58.669367466221956 128.37027917586238,58.43220570589256 128.11087373718328,58.23069251121342 128.02483977259544,57.81370586531921 128.16431907883089,57.778052147366 128.16171198899247,57.51452181034074 128.53191874569893,56.866525816409194 128.88648296338943,56.345626591651126 129.2632074446883,56.22315040659123 129.44309664337197,55.95804000381668 129.57866531483887,55.508425920358604 129.42223992467916,55.49912340528681 130.0127457725248,55.210742326675245 130.05054857514915,54.77350790164019 130.39729152333894,55.00608112963255 131.02038599413208,55.41385005817938 131.97327732918347,55.81540539872458 133.30680378028046,56.35337821235498 134.29619437302608,56.6153804308542 134.73809610022727,56.658788602029745 135.49284860773332,56.44174638053664 135.5254372306954,57.12076710636302 135.58540029691358,58.069479837105064 136.39229460114439,58.131484934609034 136.80551834015205,58.012124873901485 137.03624579063035,59.171578919780586 137.83531882536045,60.5138198628938 138.37889705616544,60.75714518413861 139.70851287250844,59.45832726511799 141.08244921606092,59.34207865381177 141.86196907701378,59.055327893713184 142.22044392946555,59.39012819850177 143.4053662599108,59.70942092480527 143.86030343628954,60.25344152142952 144.67501901002834,60.143399198614134 145.5783756381934,60.52621870906114 146.44914364341093,60.3061375344696 148.37447948726913,60.48437255863155 149.4121012419855,59.82256657514699 150.21769200130075,59.06772804980665 151.08585291667987,58.71741935258251 151.78324944779888,58.13303505847762 153.36575297823583,57.55327658727856 154.63931636311463,57.30369391736622 155.03429047326063,57.38120454653745 155.9337364666644,56.931636836870894 156.47210051779984,58.078780619491226 156.8866278017158,58.20744079942597 157.6100952311972,58.83987340343174 157.78998442988086,58.95147614915277 159.07006553933752,59.43972755308914 159.89781656226114,60.251891635644824 160.32537929535465,60.16354785852582 160.7320853097699,60.23949254313811 161.49335554187564,60.44252628137838 161.57026469203265,60.28443920051632 162.62092189593386,60.034905909046756 162.9037911431369,60.38363130594462 163.45388709851977,60.79589085864791 165.95799688597617,61.56923178160196 166.9174059456127,62.040344102631025 167.87290437049523,62.430859239802885 169.62747583010787,62.87714873441746 169.78911539993715,62.6292119065065 169.26117970814812,61.46229944457082 169.7069920701033,60.560315478603115 170.91016402940295,60.572714283018286 170.801969801214,60.326285956894935 171.3246913133189,60.282889318212256 172.27236846869346,60.747846206078066 172.60737951262126,60.65795576196979 172.96976499981974,60.46577422883911 173.98522649092774,60.65640592159798 174.1690263243654,59.88611372553896 174.53271535648673,59.253729054513315 175.09063258137758,59.12197860173728 175.74892276496394,57.79045345101258 177.66643733931414,56.04020926991325 178.90741210123815,56.10532418982257 179.70387804612983,55.48361919956642 180.53293261396902,54.730093798099915 180.82362313068006,54.016842533500494 181.2277220552569,53.72377860533015 181.88731578375882,52.97480916005861 181.60575008147134,52.68172308600606 181.3189701995143,52.045906482288046 182.32139624144475,51.630283683828566 182.9692580656847,51.799325811327435 183.203896150917,51.57910538325814 183.16478980338434,51.17122304517579 183.17521816273074,50.80830617989159 183.2208422348558,50.27166800541363 183.22344932469423,50.1677501060567 182.4504471883265,49.86374697631709 182.37744867291622,49.28053852677931 181.38154035557818,50.18015825463044 181.56273309917742,49.86529802971472 181.93033276605274,49.38291200866661 181.71133721982915,48.50805955166652 182.10109715030558,47.867396545267184 181.65267769851926,47.567996596781086 180.8483904841196,47.36787590470067 180.1353514139846,47.599022800379316 179.31672520548454,47.388043237950114 179.73125248940778,47.20653617582502 180.3478292356158,47.08242740622245 179.74037730383134,46.606149623600686 179.17594235434808,46.57822403078171 179.6465220697428,45.9110958144247 180.02455009595724,45.3044465226867 180.31524061266828,44.604672075409326 179.92678422710742,43.70158463832104 180.1940109352945,43.16932494984576 180.2409385523424,42.48806459193929 180.13144077923062,41.968173525593556 180.38693558315572,41.48395880959106 180.89010392149794,40.65827134398933 181.7308903935991,40.58532288894003 182.02940217981813,40.982654471273236 181.90295832276752,41.56000647925339 182.4035195712786,41.592598209034804 182.571676865693,41.61742995135046 182.93406235289876,41.56311045684288 183.01488213781704,41.93868657810708 183.57670999746915,41.84556948707541 183.89868559220486,41.828497952050384 183.7878842741775,42.232001297031275 184.18025129449234,42.37322467307604 184.9741101495456,42.13888619046793 185.1605170728144,41.8347057854171 185.46424303871026,42.020939484471455 185.98696455082245,41.88281639909201" stroke="red" stroke-linecap="round" stroke-linejoin="round" stroke-width="0.5"><title>2025-04-05 219.5km</title><desc>1743821058679</desc></polyline><polyline fill="none" points="74.61534762721294,114.01447234107604 74.59588545767201,114.01046936138323 74.57237920095304,114.05727303661115 74.80643074634645,114.09329896135796 74.76017649925507,114.61792622953931 74.81224412166375,115.32710893454055 74.76775916271254,115.91117399781479 74.80794727903776,116.11762639920403 74.8539487706812,116.81470232897277 74.9702162770327,117.78708991952021 75.13779313944633,118.08008639066156 75.68526144109182,118.1378823389773 75.95596252653104,118.01952220615885 76.36997595132016,118.01183629284128 76.43417583526207,118.08715724206536 76.69704150179405,119.03693216636793 76.82493575878107,119.11191547953922 77.57157535391343,119.13803619706346 77.68607357212477,120.05639324079516 77.78515370797231,120.34790007441234 77.78287890893444,120.52481525548251 77.74724039068315,120.97288402384174 77.83899061852117,121.25016199191168 77.8743763813236,121.85742748006624 77.79197810508231,123.42343194360865 77.77024113650441,123.4228183732921 77.77201042464458,123.4188301626375 77.77554900092491,123.41790980544852 77.78742850700837,123.46423403905192 77.76644980477613,125.15740682869182 77.80486863296119,125.71194482080841 77.80865996468947,125.9163793215771 77.65801771733095,126.28444287414004 77.80764894289678,126.32550580233419 77.96359905467489,126.34664988919417 78.07051460942967,126.45512550318335 78.17212229976212,126.7213922094611 78.14406644496921,126.88193551599511 78.17060576707081,127.4042444334741 77.29581915950257,127.45110917998932 76.91491669847892,127.51236899474202 76.50140878458751,127.55249338007161 76.32726028050911,127.64805427308056 76.17762905494328,127.72370412107898 75.70118503435242,127.7396301204924 75.70093227890447,127.69430201614728 75.72848262280058,127.69675220443514 75.71913067120295,127.95554016065012 75.79723210481643,128.24798506237607 76.10989059472195,128.69776456243267 76.29895167026734,129.0727756970282 76.58860941435069,130.02704678125087 76.73596584087682,130.47161972322579 76.78196733252025,131.05987988790048 76.87851991388106,131.36909842383466 77.21165159512293,132.03481672149314 77.21771772588909,132.28338485976337 76.92603793821581,132.87734410553685 76.77084609278336,133.1900118150745 76.75694454310997,133.30308854311602 76.61944557907827,134.26953930358445 76.48093559325025,134.61166708524433 76.09270322421798,135.3128872043194 75.97062234254918,135.7614337634534 75.78636362052748,136.1650285183705 75.49645312099528,136.5371224109631 74.9330612260901,137.0455742477493 74.04614235699046,137.36475520077647 73.61039196362253,137.55667200177436 73.05205517768809,137.72020194585843 72.4128366482064,137.94900447331565 72.11787103970255,138.13691247790143 71.84969750874916,138.4086838374012 71.49356508168694,138.66914272839563 70.81441119132705,138.9673878123483 70.51969833827206,139.1442449444478 70.17317061825634,139.49700834948294 69.90550259820156,139.73571379996997 69.23089830591562,140.07772848269542 68.93997678458982,140.27706380978248 68.67812213985053,140.57451431969457 68.38012346596406,141.0111805395095 68.07201457413339,141.39415520717694 67.87132674795339,141.86388463108506 67.72877267495005,142.12886955286604 67.52100769620847,142.38042790656573 67.1486989204368,142.6496231648846 66.55826219253231,142.99856100668808 66.13211650621088,143.4506489715891 65.839425696744,143.71547205269644 65.3478163492382,143.96292026992683 64.92874781547653,144.21247518205678 64.40554403689748,144.76962661567768 64.1441949030559,145.01667032875775 63.84720725096395,145.2049797698362 63.05658820777717,145.5258958045697 62.21238500948857,145.71325597394798 61.297915796492816,145.7184264367893 60.86646224574997,145.7585732106461 60.76763486535219,145.70930208367054 60.720622351914244,145.7488407162523 60.81944973231293,145.88174694918234 61.07599651263081,146.07394716884232 61.75767795747652,146.28255350692416 61.97883897499105,146.42364220070385 62.223000738329574,146.6717451644122 62.53287891830041,146.87209539025912 62.689840051873944,147.04598325279926 62.783106812403275,147.23931348133874 62.86120824601676,147.60769555132674 62.9805088177518,147.8374520757127 63.21784618397669,148.04895606430546 63.429655249894495,148.33731534222807 63.499162998256,148.62351611894837 63.62756276613891,149.71455864519226 63.72335708115497,150.0497986628543 63.91494571118528,150.57322153810924 63.89068118812065,150.9056195929361 63.75166569139674,151.339039622678 63.712994107763734,151.6431192175162 63.59849588955149,151.98387701806928 63.61290295012168,152.26118410898016 63.79261207406853,152.5302713370338 63.925561440027195,152.75413569511284 63.99228887845402,153.03560735753922 63.95993618103512,153.3458584330981 63.67811385585719,154.10813765413354 63.47414020884571,154.3355050133116 63.073522822831364,154.670760123636 62.799283161112726,154.95232919264458 62.39259964433222,155.1150738548804 61.97024528973907,155.36780813222185 61.75110631581356,155.45871379305595 61.33987320095821,155.49446915720637 61.13134995587188,155.56900843558378 60.92661804251384,155.72868505305246 60.66729095226219,156.1797872158263 60.59727769300207,156.49845071997333 60.49187867094133,156.7595321301485 60.31141128064792,157.05541323928355 60.01821496028424,157.24588612075763 59.790229545656075,157.52142660611366 59.76141542451842,157.79875469504987 59.83673654819813,158.00612613907765 59.97196071319286,158.23043217842678 60.05435898943324,158.6859476948223 60.213847677492595,159.28299254829903 60.201462660512334,159.93072244031464 60.13979033105625,160.16303141447747 59.96766387056687,160.41558370285316 59.88779314881231,160.64966446416634 59.75585480464906,161.4222255022196 59.55693626660832,162.10630505233007 59.495011181704285,162.5164259762671 59.31555481320629,162.7355138633361 58.189529289740676,163.42710803592126 57.849573211388815,163.54885097211923 57.502539980476286,163.7575832611367 56.24331233560406,164.64156768264183 55.65616142853105,164.99121421753216 54.83420070971806,165.6085688055498 54.45228722690081,165.98404323154523 54.206356175423025,166.37636320593015 54.019569898915506,166.79457271728393 53.82166238267018,167.0627834968409 53.50875113731581,167.3991400118025 53.33081130150913,167.70197522893386 53.143772269552755,168.20290465057246 53.116221925657555,168.63680624887593 53.28607358710906,169.4278384438046 53.29087594063276,169.66413775490946 53.17258639069314,169.93567518741816 52.53791745928447,170.65070163705286 51.84789508463564,171.22517491560984 51.44778320951991,171.8046437612552 50.90435899505246,172.36140540918336 50.52724786575618,172.9240711775749 50.290668765876944,173.15674949326012 49.66990138414167,173.63588850100314 49.216205353924124,174.11614502504995 48.7751470961357,174.48681027309476 48.59215215135737,174.71393765700714 48.30805502714338,175.2126476414412 48.12682937050431,175.43851037728246 47.649627083566884,175.96053814568722 47.460060497125596,176.3102036597927 47.17596337291161,176.88766801819474 46.73996022409483,177.37605569013135 46.38686086241523,177.92474687629897 46.089367699426475,178.36367899102652 45.80855639604397,178.60189198700823 45.26184636074504,178.97584067977982 44.76594017061325,179.52450471518773 44.19016325872599,180.00430606127475 43.92300074956802,180.22105926082463 43.91465981976398,180.24057219414885 43.59264937826083,180.6013857999542 43.05023618558789,181.02307403003056 42.36779647439744,181.77594555225346 42.10063396523856,182.189650029635 41.848131272098726,182.85612337218845 41.7675022839976,182.94429424570444 41.684092985963616,182.94669341276744 40.8224496617222,182.68517160976853 39.96788349004237,182.58109565547784 39.337764156708545,182.43592246872367 39.04886467897177,182.41822520145047 38.55927737505408,182.4002278610635 37.95898318465515,182.28294224296656 37.29550013210792,182.25024534045883 36.704810648754574,182.06605536054735 36.20435486054703,181.97515565522485 35.90104832224006,181.9106540000937 35.543399362486525,181.75374351194273 34.98531533200094,181.3525750515396 34.400944734862605,181.0653892645821 33.65531616152566,180.89942569489767 33.17179498837322,180.67822503028037 32.65440458511148,180.33963566751072 32.286645407413744,180.12739520612308 32.212082550080595,180.02682279017358 32.172652700100116,180.00280493929858 32.138783469988994,180.06555112194792 31.857719411157632,180.31081757960874 31.50638933761911,180.4624092629133 30.954624193348536,180.5782735700334 30.80069612515763,180.66982084656206 30.609865761472065,180.9204343085969 30.240337295635072,181.6313289693901 29.99112042332581,181.80384785636602 29.45148754058755,182.073555198986 29.07058507956299,182.5049107039399 28.619163848382414,182.85582346632714 28.45209249686559,183.04205857108468 28.31282424469282,183.45946628902402 28.20009531462256,183.6948293148796 27.95340599679912,184.0024192753799 27.822984185327186,184.2629139025271 27.70469463538666,184.60490600400203 27.512094983562747,185.00768766410192 27.258075757729785,185.7028239730521 27.148632648490093,185.91762081218826 26.927218875526705,185.9113299344765 26.65399023560167,185.82235737892915 26.485149595942858,185.72918768575437 26.442181169683863,185.76513778785352 26.51724953791563,185.8367369806324 26.27890114989532,185.81307051209546 26.117137662798086,185.76573695216302 25.696299840896245,185.4910061568546 24.883943829131567,185.14253414698328 24.539185397254187,184.8072034239599 23.97604625779786,184.4409590285834 23.851185066194375,184.5602486755904 23.77485292072106,184.52548138405837 23.54484546250478,184.4598419124652 23.355278876062584,184.39629898294947 23.26428691457113,184.12802339705763 23.324948222231797,183.89719508457165 23.25139638669316,184.0386921888778 23.293606546606497,184.1211288119987 23.2999254328206,184.17868306780179 23.31989311326015,184.16549365946094 23.28905694853256,184.15710036598261 23.262012115533253,184.10134425254546 23.050203049615448,183.3524217744391 22.974123659590987,183.162909561202 22.840921538183466,183.12752447337562 22.724401276384015,183.0471566133126 22.518911096680313,182.84322738997776 22.470634805999907,182.74035722568624 22.255539919250623,182.69476918951023 22.111722069003008,182.84832580893772 22.01061988956826,182.87831631313475 21.964618397924824,182.80273960229783 21.957541245364155,182.80783809798186 21.98155301297993,182.81323649464525 21.96107982164358,182.81953461039734 21.95829951170981,182.80723827546058 21.885758697963865,182.8204343400157 21.827877700237877,182.77814672270165" stroke="red" stroke-linecap="round" stroke-linejoin="round" stroke-width="0.5"><title>2025-04-04 448.7km</title><desc>1743738585602</desc></polyline><polyline fill="none" points="114.10570201345217,172.13532444687962 114.09496665271035,172.13034502207074 114.11850186664378,172.1512585669043 114.1672238884712,172.13134090750145 114.12634693795371,172.01282889601544 114.0953795512014,171.96851052659486 114.12841143040532,171.97000441177215 114.14038548661483,171.9431143978709 114.10652781043245,171.9032770261838 114.00123869546769,171.73645395904077 114.06771535236658,171.70109658376896 114.28861604454687,171.52629733159392 114.49217500014129,171.35846333411837 114.64907642636172,171.28923609605545 114.9546213090016,171.32609102566494 115.35059096096302,171.39730977730596 115.51492456000415,171.41922299816815 115.52772441319757,171.1059527586949 115.50171180832331,171.01131966628054 115.56571107427953,170.92216339503148 115.64044570098122,170.80511180591475 115.72798018087087,170.74284900255543 115.706096560898,170.7119663120311 115.75523148121283,170.67958905563728 115.79445683776976,170.6003882606501 115.87662363729032,170.53214487663763 115.93195203495634,170.4424803623442 115.96250652322124,170.4240490877337 115.98521594017438,170.45493388079558 116.11899505095062,170.44696363321236 116.27919966509216,170.39764739225666 116.5694673035996,170.40761031557577 116.78706480785877,170.41508249266099 116.87996696812115,170.3836992601755 117.001359124195,170.48033894471564 117.07815824334466,170.56701389656655 118.00759274445409,170.30698371133803 118.31478922105453,170.32192840792914 118.47334224123551,170.25218603860776 119.0456195484494,170.04095927370508 119.13439272380856,169.9717104666738 119.19426300486703,169.83669694108494 119.19880488825765,169.52580069239684 119.27230081948801,169.39974169151856 119.37552544199934,169.3384547320261 119.66248989258747,169.270689254417 119.7727337894321,169.13366015243855 119.88628087419784,169.0609083507852 120.48498368477522,168.98117891053016 120.69473611772082,169.0778506630454 120.8012639281551,169.11123678545482 121.01060346261147,169.08532519097844 121.09483475458183,169.0384845977601 121.32234182260072,168.7918154604813 121.4268051405852,168.752446730291 121.70964060627011,168.82570217498596 121.8500260928904,168.79430713992178 121.92352202411894,168.72354287207054 122.032114327003,168.51124295681348 122.27613733462567,168.3667134366965 122.37688456619617,168.27052380856685 122.47556730532051,168.09458581633407 122.62586235570052,167.99290726119762 122.95122636586166,167.80200414576484 123.01770302276054,167.67041055084928 123.12670822413384,167.65047176963935 123.4343175992235,167.71278014833433 123.54249700361834,167.6444901169166 123.84391290135682,167.6165756255109 124.22171501975572,167.53781588707034 124.6098396004054,167.37630398007332 124.7403155232605,167.21977111292017 124.95502273808961,166.94806812083334 125.25974182374921,166.6030548988865 125.50004874495971,166.39064834008423 125.7717359514154,165.93638153008123 125.85266405546463,165.7733122494751 126.03186200014898,165.8366457156485 126.4385670128504,165.68653887015444 126.86343955911434,165.52744970532513 127.15453299460205,165.39179527051465 127.22307414395254,165.31698397306764 126.57647510852803,164.66606968145516 126.6247842318644,164.59074667558252 126.66896437029936,164.55582826932414 126.66277089295,164.55632710573536 126.6437775624072,164.6176835342403 126.62106814545405,164.55433175973485 126.63386799864384,164.55682594208793 126.62932611525503,164.55083990196363 126.65286132918663,164.53737128060857 126.6450162578767,164.5663038215689 126.97822533934959,164.19665073136457 127.00176055328302,164.21710471847518 127.23380950469436,164.77780464197622 127.42663309954878,165.138927747465 127.56206380428375,165.04366208595684 127.66363683283816,164.99777419306747 127.89568578424769,164.98231185581426 128.13640560394924,164.93542571236367 128.36060948404884,164.81322001593253 128.71776667794256,164.62716127691147 128.83090086421726,164.46503905951295 129.00101504212034,164.34880606340266 128.95848649764412,164.26000788120928 128.94940273086468,164.13429040197343 128.97458953875685,164.14077591921568 128.98738939194845,164.1377826048065 129.04643387602482,164.24504171124636 129.02496315454482,164.34581289671223 129.21283196751756,164.2310732380056 129.29747615797714,164.1382814906883 129.5571893082215,163.96217110541875 129.76818043663843,163.80052223510802 129.89081128818543,163.65682914497438 130.0567964811853,163.5735048656975 130.17488544934167,163.60593666724844 130.20626573458503,163.68377197259133 130.32807078915175,163.61342089369646 130.3487157136533,163.50015817851772 130.1827305206516,163.2875952612826 130.22525906512783,163.15635974921997 130.33550296197063,163.02761523651316 130.5572294511312,162.75863628974048 130.70256971962772,162.77011440639035 130.75129174145513,162.78608390795762 130.75170463994618,162.44721805758354 130.74427246712548,162.40629279595487 130.98664388078578,162.28800657212332 131.03330141016158,162.28201730785713 131.1105134278023,162.07089029966664 131.12290038250285,161.92863563687206 131.20465428353418,161.8956917663868 131.25750529026118,161.78238284984582 131.21827993370607,161.75043617248093 131.09606198065012,161.59918533087966 130.90778026918633,161.5297978128824 130.80662013912297,161.5612469735488 130.80125245875206,161.52330827429387 130.78638811311066,161.50284120244078 130.77689144783835,161.495353224459 130.68275059210646,161.42296875054944 130.67325392683415,161.29766578772387 130.46928207274868,161.05653445027838 130.48166902745106,161.06751795851187 130.5010752564831,161.01609492289072 130.42881802072407,160.88279150674998 130.46102410294952,160.8723067892738 130.58943553335484,160.97216018109702 130.65838958119457,160.7729503126193 130.76285289917723,160.70954068152287 130.8185941953343,160.70404846378278 130.90158679183514,160.63963919344042 131.03082401922256,160.5447710306221 131.1410679160672,160.37150628581094 131.6113592962356,159.29081233769966 131.83391158237464,159.04107460202067 133.3975581642062,157.56432184991263 134.13540776593254,156.70230979069083 134.3732372962022,156.5178911918283 135.33983266141513,155.8961059192734 136.3415243982854,155.04525044525508 136.5954569696678,154.7857601837709 137.4505697425684,153.73163468255143 138.06042081237683,153.14745102585266 138.92626894601744,152.33556061756462 139.8115233086919,151.79821575639244 139.97709560320254,151.67913000384897 141.02585776793785,150.6047033292998 141.21166208846262,150.36095476225728 141.36360873280137,150.0806513878424 141.7818749032267,149.09994235590057 141.86362880425622,148.78851038170433 142.0197044334982,147.80098747634202 141.9449698067965,146.90540495989444 141.99410472711133,145.5636755086175 142.03456877913777,145.1472408851705 141.999059508993,145.1332086701941 141.87147387556797,145.22291380285014 141.84628706767398,145.31462152676977 141.87064807858587,145.3712487874027 141.9478600962284,145.336170043915 142.10847760885736,145.37626001241233 143.408282055545,145.80369536869512 143.8306772108699,145.87184045525737 143.82448373351872,145.91593374222566 143.7778262041429,145.90591258152426 143.73447186268822,145.5526513005443 143.58706710173828,144.69267336283383 143.50820349013884,144.50371507344835 143.31248960585253,144.21199078011114 143.27987062513785,144.0806580657577 143.43512045739772,143.48309214130586 144.04290703475817,142.4115703802213 144.73409910710507,140.71923849185714 144.81544010964535,140.40417017003938 144.84310430848018,140.05044245635327 144.9607803781455,139.53911481460364 145.16021034884216,138.94039526517372 145.34518887238482,138.54839557297782 145.40382045797196,138.2683014676445 145.3988656760921,137.9565616590835 145.3100925007293,137.28230047755187 145.30761510979028,135.65267732646362 145.25063511816188,135.0704782496855 145.3228923539209,134.84290112042663 145.88938908227465,134.20129756428696 146.28164264782572,133.6073365094112 146.46951146080028,133.4349613393856 146.70445070163805,133.34650949290426 147.08720760191864,133.33495030549193 147.3799526313651,133.27212807172646 147.6041565114665,133.15251190908066 147.86965024056917,132.90623247999702 148.20162062657255,132.45686050003087 148.3184708992576,132.41212169877008 148.3841217591762,132.37090125249279 148.53565550502572,132.23215625248304 148.8350069103144,132.13111077704934 149.6211656353753,132.01950545028467 150.0679218016121,132.01246717584263 150.41516943174793,132.08134120508885 150.83673879009075,132.21506415600697 151.39415175166505,132.3286750046973 152.24926452456384,132.66948888014213 152.4784231865433,132.72377523061186 152.67785315723813,132.72226728602436 153.16755076644222,132.6358108797217 154.65646272157392,132.75896044869432 155.36045464711424,132.92131123252557 155.9133257252961,133.00072509146776 156.61896924479697,133.02334268457162 157.55624881721633,133.2057867603512 158.0616365690439,133.26107126015586 159.4155307179244,133.23393168865732 159.77475240427157,133.27715388542765 160.2636242164972,133.4419972007695 160.50393113770588,133.4419972007695 160.74134776948813,133.3429914827525 161.00106091973066,133.1600508446786 161.25375479564354,133.09270253461045 161.50025519420524,133.1268794255916 161.77978747197085,133.26559450481318 162.0828549636699,133.33495030549193 162.3433939108927,133.29976997175845 162.4998824386239,133.2284032356638 162.63613894034097,133.08013743038555 162.7699180511172,132.8102298036647 163.12913973746436,132.46540605886503 163.95328512361084,131.99738511895703 164.42935708264122,131.8224292501509 164.90501614318237,131.53433927703827 165.10155582444713,131.45389173007425 165.17546465416854,131.44836090386934 165.21469001072364,131.4493665091827 165.22831566089553,131.45037211425233 165.21469001072364,131.4433328736436 165.35755288828295,131.4086392988752 165.98474569467362,131.41618140504443 167.28578883683076,131.27589598428722 167.54302459613427,131.15471371666945 167.95138120279626,130.79466583040994 168.1499853765108,130.68000714392383 168.42249837994677,130.60457206744195 169.38620345572963,130.47783804750134 169.91223613205875,130.28420914314165 170.08482770089904,130.23341149069893 170.4440493872462,130.1398617090499 171.14638971882596,129.7213766097948 171.8326270092948,129.53676697948367 172.18441652281945,129.45929890714024 172.3520533097835,129.46483238893325 172.744719773822,129.5327426997178 172.89831801212313,129.49199664686876 173.29057157767238,129.15041828943504 173.46770502990512,129.03068312397772 174.00529886395452,128.8747203633793 175.12590536595962,128.56982135274166 175.7043761505247,128.46365487532194 176.33239475389564,128.42189196027493 176.736209477167,128.35044117672078 177.1416757943971,128.23219245208702 177.82791308486594,127.96549143690027 178.37087459928807,127.85880621832985 178.84735945680768,127.85981269550575 179.28957373965386,127.93731070305876 180.20373099663448,128.15973198981737 180.5893781863433,128.18740801055264 181.86729901305625,128.0525485633043 182.49160153001867,128.04147781649135 182.9808862407299,128.09884409276037 183.64647860669538,128.27747959683256 185.10401027658372,128.7524615756579 185.76134467275006,128.97182044968986 185.85011784810922,129.08048934865337 185.9620133389144,129.13281039400272 185.98183246643566,129.26210091124494 185.98885174076713,129.4859601605026 185.6837197566183,129.67509921912233 185.69858410226152,129.71534045772432 185.7576285863397,129.7228856464376" stroke="red" stroke-linecap="round" stroke-linejoin="round" stroke-width="0.5"><title>2024-11-03 238.5km</title><desc>1730609154811</desc></polyline><polyline fill="none" points="83.52672269778122,194.0 83.56080842642768,194.0130133190105 83.57931210769675,194.31468088500333 83.57346883992795,194.36791537670888 83.5462002570057,194.39157505824915 82.9141534600858,194.43889425048292 82.22464786344062,194.39512400557123 80.38596627239895,194.45427293891044 80.21456375119305,194.48739618610944 79.97109426085444,194.5678378931716 79.82403868869005,194.5690208545384 79.77826642450964,194.59977780015197 79.75586723139713,194.65064484515733 79.76073662120325,194.70506046234914 79.84546400383624,194.80324440082222 79.98472855231375,194.89432982828475 80.12886249059375,194.95347575779306 80.21066823935325,195.03273074541903 80.53399572251874,196.08782582738877 80.72584968090814,196.52780960598193 80.88361791065108,196.78445771913175 81.47768346708108,197.62413515630396 81.96267469184022,198.70733143093548 82.05421922020832,198.86696271949586 82.23633439897822,199.06088168944734 82.67263172566891,199.35411775030025 82.82650444356477,199.53265639417987 83.05633964244771,199.99849694037493 83.097242516822,200.12973230070293 83.11964170993451,200.28697596829625 83.11282456420304,200.43357682386886 83.08458210332537,200.57071758281472 82.55381861438582,202.29663620355768 82.50999410611985,202.53776786510662 82.45935245213332,203.0247412547251 82.3483303645371,204.96412207044796 82.30840136811821,205.9744342931126 82.33274831715607,206.5510338997601 82.47201286562631,207.7100388339577 82.4983075705859,208.41293670129198 82.46909123174191,208.87835745805478 82.31327075792797,209.8433858254939 82.09122658273918,211.06105308277893 81.8954771125027,211.75780765955733 81.75621256402883,212.13450701252623 81.36958301336927,213.01066116606125 80.83979340238875,214.1901582596156 80.66546924730574,214.50655592589192 80.49601448202884,214.7662777744781 80.17268699885608,215.16293068421874 79.98862406416083,215.36125116328913 79.70717333332504,215.5583872153893 79.54453571378326,215.71066326784785 79.41890545676506,215.8582153420457 79.37995033830884,215.91487475265149 79.39650626365255,215.91369435157776 79.05077958737093,216.3232850533568 78.57163163038058,216.80131611818706 78.32524050615757,217.0810420843418 77.71851453623094,217.6935788746987 77.41661236820437,217.91781213285776 75.8710680435288,218.8028937223462 75.29550616836787,219.19112449622298 74.85044394002762,219.56164055384215 74.59626179210682,219.8070702936493 74.47257929101761,219.90500449814408 74.18333753649131,220.19998117832165 73.21238120901762,221.1308698534731 73.22309386659254,221.10373492213694 73.18511262610264,221.13440918685046 73.19777303959563,221.11199338738516 73.16173955502381,221.16980245094692 71.97945170993626,222.30114036893065 71.60645645073237,222.68569499969817 71.2948155030972,223.0513619129024 70.84293612902911,223.62578553645017 69.69862952442782,225.05285385085608 69.41620491563299,225.36654540270047 69.09287743246387,225.6743308309433 67.07208066264138,227.3923288131782 66.6873988678999,227.6976932615862 66.05437819301733,228.1197645211705 64.45624445842623,229.1288899036399 64.12415207360755,229.36936722777955 63.654742896229436,229.80433343693767 63.054834072030644,230.52569869826675 62.86590174752564,230.7307831523849 62.80259968003884,230.74139085349452 62.75195802604867,230.70485316852228 62.70423800593926,230.5044828227492 62.70715963982366,230.44790693255618 62.744167002358154,230.42079753732378 62.78312212081073,230.42433354960667 62.857136845872446,230.50330416166435 63.65571677418484,232.08140575055404 63.71220169594744,232.26524590011377 63.72778374332847,232.43494147266847 63.707332306141325,232.59756366970396 63.656690652151156,232.75075605208713 63.53592978494271,232.95225934923747 63.427829331230896,233.06184714183382 63.32459826732884,233.1384400409288 63.15709125797366,233.21856736342124 62.82012948334159,233.2986940381661 62.5698428472715,233.39295988506365 62.36240684150471,233.53553527513395 62.073165086978406,233.8301060319227 61.91831849111986,233.94675363214174 61.73230780049926,234.04101331648508 61.26776801293454,234.19182694728624 61.029167912402045,234.3355690537237 60.85484375731903,234.51583284813023 60.61429590086118,234.89520084586184 60.473083596465585,235.07192011275765 60.29875944138257,235.23685525368455 59.90726050091689,235.51959482720667 59.63944406153678,235.75284890683452 59.384288035660575,236.0497098011665 59.18951244339405,236.3548075724384 59.086281379488355,236.57037292650512 59.01421441034836,236.80478020766532 58.97818092577654,237.015624236009 58.9460429530518,237.4997240146031 58.86715883817669,237.74353174695625 58.7853530894281,237.8695556172397 58.70354734066859,237.96142247655098 58.2984141087436,238.26175050403435 58.190313655035425,238.3830568946505 57.95658294430541,238.8682676284543 57.7413559148481,239.25806780466792 57.67707996939862,239.4182229562739 57.62935994929285,239.68082470771242 57.65857628813319,239.97639056575917 57.75206857242301,240.23073501578165 57.993590306839906,240.64638576142352 58.040336448983,240.7935666974863 58.059814008211106,240.94780997699672 58.031571547329804,241.19035563092984 57.86893392778802,241.63069036504749 57.82121390767861,241.80258044345828 57.74525142669518,242.51130126053795 57.698505284548446,242.66316342732352 57.6157256578299,242.82797245384154 57.29045041873542,243.22468011124056 57.16968955153061,243.43774207598017 57.10443972811845,243.6625704646367 57.06061521985612,244.18165741343273 56.9866004947944,244.47944335283137 56.883369430888706,244.71366396744543 56.409090863708116,245.57634856565528 56.32436348107149,245.8093664844264 56.202628735896724,246.22949104877262 56.082841746650956,246.46484718993634 55.95039434390492,246.62370943508085 55.760488141440874,246.77080184289753 55.592981132089335,246.8519959197356 55.17908299851115,246.99202472610068 54.83627795611028,247.22147943059463 54.70869994317036,247.2873731361933 54.49152515778769,247.32855648041914 54.3503128533921,247.31678982804897 54.06983600051899,247.26266304777346 53.843896313486766,247.2803131171986 53.717292178509524,247.32855648041914 53.22840544190694,247.57682959870453 52.73270155957289,247.78979828168576 52.56129903837427,247.92040112921586 52.282769941422885,248.33808340548694 52.16006131829636,248.4675025224924 52.01690125797177,248.57574267243854 51.82991668938848,248.67104009012564 51.66338355799962,248.7181002064881 51.51730186379427,248.73574769271363 51.03231063903877,248.73692419068357 50.844352192496444,248.77927802485283 50.677819061103946,248.84633789340842 50.52102470932368,248.94280919189896 50.370073625312216,249.08280855832254 50.05843267767705,249.53573418473843 49.556885527574195,249.96981757332287 49.40788219949172,250.03216403823353 48.935551388229214,250.15920845552228 48.622936562635005,250.300367016398 48.35025073345241,250.4779886931192 47.908110138992924,250.8638049866804 47.72015169245424,250.97319529889864 47.236134345654136,251.15433360154475 46.71510963633045,251.40133506405073 46.54468099308724,251.44250137840208 46.09474937494451,251.49660541827961 45.95743258239236,251.5401236716807 45.80453374245917,251.61304572372774 45.620470807760285,251.74947909568073 45.11015875600788,252.2352137624939 44.919278675581154,252.37516680966837 44.62029814144262,252.51982209275957 43.96487827344754,252.74444523550665 43.647394058043574,252.9255513035805 43.498390729953826,253.0490308245062 43.36204781536799,253.19485228631493 43.058197891419695,253.6405352878446 42.88776924818376,253.835735807761 42.64527363580419,254.0285807561595 42.34044983390049,254.189673977874 42.159308533086005,254.25669739726345 41.93336884605014,254.31431366034667 41.14355381938731,254.40132534411987 40.804644288833515,254.48010553710992 40.48716007342955,254.61062060464883 40.021646407898515,254.89868834803292 39.809341012321966,254.98216764699828 39.58729683713682,255.00450705902495 39.14710399859905,254.9657069955465 38.961093307978444,254.9962767551615 38.759500569980446,255.08210673249232 38.014483929535345,255.47127173289937 37.80704792376855,255.54534069023703 37.587925382464164,255.57473298096738 37.07858720866716,255.56650314830677 36.56730127895571,255.67701747660067 36.023877376515884,255.6923012765501 35.88363895008297,255.72639582269676 35.74340052364278,255.7851792488882 35.42494243027977,255.98856722688015 35.27886073607442,256.12258940493666 35.15225660109718,256.2683658670985 34.9779324460178,256.54698107369495 34.70427273887253,257.18412243151397 34.59325065127996,257.349866549348 34.457881614645885,257.4944495921418 34.26018438849496,257.64373232121125 33.69046578109919,257.96579925340666 33.00777733018185,258.4371266217595 32.90941565608591,258.48884198341693 32.72048333158091,258.5464337749072 32.53836815281102,258.5687651963517 32.31924561150663,258.5476091141236 31.761213539644814,258.3325197289505 31.582993872714724,258.2913818860425 31.39600930413144,258.27022521499566 31.11358469534025,258.2890311470337 30.584768962318776,258.4159702601055 30.257545967302576,258.47238712472335 29.92253194859586,258.5370310561693 29.764763718856557,258.6052005660349 29.624525292420003,258.70157735338853 29.20478389107666,259.16464306781745 28.709080008738965,259.53249466123816 28.508461148700007,259.72287897317165 28.350692918957066,259.9214858929945 28.236749197483732,260.11538824031777 28.17734264184037,260.27403281053193 28.08092872366251,260.6782712678141 27.985488683450967,260.8733339637156 27.873492717892077,261.0014152248832 27.65339629862501,261.1847213238798 27.50634072646062,261.2751980923058 27.37486720167726,261.3221986870085 27.21125570416916,261.3409988628682 27.09925973861027,261.3292487571098 26.930778851299692,261.2834232123696 26.765219597866235,261.20822186212536 26.514932961799786,261.03196647537334 26.142911580558575,260.6406683817204 25.930606184978387,260.51610780867395 24.538934578198678,260.11538824031777 24.25943160328461,260.061330995336 23.992589041874453,260.0589806736871 23.658548901126778,260.12596462353304 23.373202658443915,260.24700465474325 23.16479277471808,260.3891954357696 22.455809618848434,261.0061154233572 22.19967971500955,261.1952965729424 21.964975126320496,261.3304237683078 21.45466307456809,261.58187298015037 20.905395904359466,261.9108623754728 20.509027574087668,262.10707588447985 20.329834029198537,262.2410158236298 20.19543887053078,262.3984516982755 20.104868220125354,262.5688086143291 19.95099550222585,263.2302358235074 19.889641190660768,263.39000562529054 19.771801957340358,263.5673940991928 19.608190459832258,263.71071228474284 19.45529161989907,263.7917683799733 19.283889098696818,263.8411065503551 19.112486577494565,263.83993183484745 18.98783019844268,263.7952925430927 18.895311792115535,263.71658593695975 18.829088090744335,263.5897142798158 18.82324482297554,263.50278276854806 18.851487283849565,263.3958794663022 18.84272238219637,263.30894626618374 18.87291259900303,263.2678289482201 18.91868486318708,263.285450676668 18.944979568143026,263.36416068375365 18.951796713870863,263.57679207606634 18.980039174752164,263.7694486513283 18.977117540867766,263.9444809734405 18.9235542529932,264.11011275966666 18.692745176154858,264.05725184998755 18.377208716668974,263.94800508262233 17.998370189699926,263.9609268056465 17.8444974718077,263.99969187432 17.625374930499675,264.0971912298255 17.33613317597701,264.3849849763037 17.11019348894115,264.52241824554585 16.713825158665713,264.87480259602034 16.58722102369211,264.93588128492866 16.429452793952805,264.97229340240574 16.42068789229961,265.0051816524001 16.595012047382625,265.3692943217002 16.68655657574709,265.42214828262877 16.769336202465638,265.5055395185409 16.708955768859596,265.4820491000337 16.70116474517272,265.50084143926415 16.73817210769994,265.5654398355291 16.730381084009423,265.5771849535713 16.68168718594461,265.55956727132525 16.660261870791146,265.57248690801407 16.700190867206402,265.60067514820184 16.723563938281586,265.67231990042455 16.81413458868701,265.7627559846069 16.818030100534088,265.9706384226183 16.744989253431413,265.9988255385633 16.64954921321987,266.0 16.648575335257192,265.9624171654759 16.670974528369698,265.95889376748255 16.65052309117891,265.9600682336204 16.65247084710063,265.92131077820704 16.66707901652262,265.90251923051073 16.65344472506331,265.91896183667905 16.663183504675544,265.9506725006686 16.739145985662617,265.9612426996173 16.749858643233893,265.94949803342934 16.754728033043648,265.9741618164617 16.75180639915925,265.9459746308812 16.761545178775123,265.953021434736 16.75278027711829,265.98825537940775" stroke="red" stroke-linecap="round" stroke-linejoin="round" stroke-width="0.5"><title>2024-11-02 113.2km</title><desc>1730526169614</desc></polyline><polyline fill="none" points="120.90728131371361,266.0 121.21016813454116,265.6859923032007 121.44352684610567,265.45481331002156 121.60256240638046,265.4201358990431 121.70405746244069,265.5819625625991 121.84870789666456,265.71007307361924 121.62973431115097,265.4866008079571 121.58338223831015,265.18413295773917 121.8207368182193,264.8883972361127 122.04450544574502,264.8219274790172 121.88546988547023,264.65719575881667 121.54102603381034,264.316161680631 121.16781193004499,264.1350417705453 120.97121520728979,264.192846431858 120.55324737801857,264.40093983835686 120.33667131351831,264.3807087667119 120.23517625746172,264.25065068564527 120.24316799415828,264.150456386742 120.56203828838261,263.7063111450216 120.85533502517501,263.49530963848065 121.2053730925254,263.50976196971806 121.37240038949676,263.4442445307195 121.4011706416095,263.3093540368518 121.25652020738562,263.18024248505753 120.88010940893946,263.23516331906467 120.45734653764885,263.3873980931967 120.299909324709,263.35752946804496 120.25195890452596,263.1889142201535 120.3286795768181,263.0819621794544 120.54445646765089,263.00487876224724 120.90248627169058,262.9200861660256 121.64811530555744,262.29085915194173 121.80954838684556,262.0769302343833 121.74401614592352,262.0075466833505 121.56739876491338,262.02585628859924 121.2053730925254,262.2368956273649 120.91367470307159,262.36505841802045 120.605992840221,262.32458617434986 120.18562748993645,262.25135017771845 119.9402811733271,261.9208164183856 119.86276132736384,261.6423096939261 119.93948199965598,261.4611306870702 120.10650929663461,261.3946331315956 120.49970274214502,261.36572098260604 120.8281631204045,261.51702676547393 120.91367470307159,261.48136896639517 120.92326478710675,261.39559686813664 120.78261022123479,261.2799476736118 120.81937221004046,261.13152881539463 120.81857303636934,260.9753969845551 120.78980278426025,260.8751626358908 120.69789781223517,260.77203563173043 120.80498708398227,260.5744522308032 121.0902920840781,260.4173459301055 121.39717477326121,260.31999634210297 121.72004093583382,260.2004764537287 122.01813271464562,260.1079437293938 122.13720959143757,260.133004778796 122.27306911529377,260.1898737987631 122.29784349905458,259.9672148737718 122.25069225253901,259.73009092095526 122.356982350615,259.72719912305547 123.4142891156771,260.25252565175833 124.38128925605997,260.3286711048213 124.57309093679578,260.4231290375392 125.05499265964681,260.30650224849614 125.45378032084409,260.21300684644757 125.62000844415525,260.12529369483855 126.10031181966406,259.7474416868972 126.40959202985323,259.4727169090247 126.95862434096125,259.3965634969918 127.74341288464348,259.61923793748974 128.2061344394242,259.6751465862717 128.29164602208402,259.61441820851724 128.29164602208402,258.94348425213957 128.2612774226327,258.838404845721 128.43709562997537,258.5221944596924 128.6296964843823,258.34769508410955 128.69043368328494,258.3322695460056 128.64807747878513,258.2676747894893 128.8222973387892,258.0758157163373 128.99491885145108,257.9379443593443 129.0892213444822,257.76536085640964 129.1395692856786,257.726794213052 129.1851221848483,257.7942857196722 129.44485362751948,257.78175162480693 129.7533346640339,257.6814781748981 130.33513309560294,257.7065466525437 130.74431001450648,257.72004503178323 130.804248039738,257.5995230006256 131.16467536479104,257.8511709859022 131.3125224936921,258.0102548011955 133.10347068757255,257.5088892640724 133.70205176620948,257.53974341472895 134.011331976395,257.4018630274704 135.1485561084337,256.9737440840763 135.29640323733474,256.8464611600766 135.4050908564168,256.5803177392618 135.40668920375538,256.0084658166743 135.54894211696956,255.75772555588628 135.7599239657793,255.6323525434591 136.2993661928558,255.5079420394104 136.55190507249063,255.20028313280272 136.80923899414847,255.08647533873318 137.97843007297342,254.95241158379122 138.30289458288462,255.1279478538554 138.5250648630754,255.1964252674079 138.9142624402375,255.14337943371174 139.08128973720886,255.04886055013503 139.52163442923484,254.57528520698088 139.72062867299974,254.49812165681396 140.27525519979827,254.64183818421134 140.54217920548763,254.5791433653776 140.68603046604403,254.43928396056162 140.8962131411863,254.03030204556944 141.44764297330403,253.69654221150722 141.65063308541357,253.3637334351015 141.89837692303627,253.10037080094935 142.62003074680615,252.7511369334643 142.75269357598518,252.4491630249904 142.87896301580258,252.3642610030729 143.53188790398053,252.48003626884747 143.71729619535836,252.44433907010534 143.90110613939396,252.317950437563 144.57880541133272,252.28418215145302 145.05191622381972,252.1751578753183 145.8822576666753,251.83456824586574 146.12680480961353,251.54124455390956 146.55676024393324,250.99991891034915 146.95155203678587,250.51645873839607 147.44544136468176,250.10438526743292 148.05041583267302,249.2126141235358 148.25420511845732,248.72615245223642 148.5594894602982,248.84197928833692 148.7281151046118,248.84101407149137 149.49132595921037,248.53503458045543 150.8195525983174,247.98578710712263 151.31264275253852,247.56393223540454 151.370183256764,247.59772004198385 151.46608409713372,247.91531858801227 151.964768467049,248.22228659471784 152.07665278081186,248.07073465032408 152.64246773898412,247.90469999129527 153.22186864954347,247.2077037069621 153.4136703302829,247.03875520259498 153.75491748725835,246.9200064465822 154.264790288551,246.90166298874374 154.55808702534705,246.78484315830246 154.76986804782427,246.59850724059288 155.0983284260874,246.16595979663452 155.49152187160144,245.9902308477449 156.05973435077976,245.72083681409458 156.549627810331,245.7662192277212 156.75661379078883,245.73145825268057 157.1370204575869,245.49295534638986 157.62131970145128,245.308521192861 157.89144040181782,245.0555209635495 158.094430513931,244.51086788632983 158.55954958972143,243.60206608500994 158.695409113574,243.19060922006793 158.80249838531745,242.5318486565102 159.14614306330986,242.07203701060644 159.2596257244113,241.80637770381418 159.3595224331293,241.07021467051163 159.51695964606915,240.51563324164 159.4650133575342,240.26828161642152 159.19729017817008,239.7600277541851 159.17731083642866,239.38509773639908 159.2612240717499,239.1251490106697 159.61925387579322,238.42256948786962 160.03562335772585,238.0930030487043 160.18187213928832,237.9006692559733 160.28816223736067,237.25307986644384 160.45838622901647,236.75720420931066 160.7444904027834,236.34830155497275 161.35425991279044,235.83593589636803 161.59720870839374,235.5778073915435 161.9768162015207,235.08182964042862 162.49627908684852,234.87008723907365 162.77758821859243,234.71248543582988 163.16119158006768,234.35666154692717 163.66147429732155,234.19324807801786 163.9212057399891,234.05110469847205 164.1178024627443,233.7716455052123 164.16335536192128,233.47477003011682 164.0546677428356,233.12759571075003 163.27547341484387,231.50950981589904 163.2626866361279,231.01521852225687 163.40014450731906,230.6118313334855 163.83409580999069,229.66374423157686 164.04507765880044,229.29221870564743 164.3239892695383,229.0271093742822 164.82347281312104,228.65652234035315 165.2382439477151,228.05851595897366 165.51635638478547,227.77594746218801 166.787042519667,227.1323900409443 167.36324673554554,226.77236273577637 167.77402200179495,226.40070489745722 168.20317826244354,225.8451221248688 168.50127004125534,225.23819643085335 168.73782544749702,224.52279828951396 169.06388830475044,224.01549534651622 169.1949527865836,223.70277181044366 169.27726767456988,223.24867189853558 169.45308588191256,222.90493330982463 169.87664792687428,222.55246509213794 170.52637612037142,222.36266816730858 170.87081997202404,222.19223448972753 171.16811257716836,221.94432456308368 171.40946302542943,221.61312056664156 171.54052750726623,221.3022413465651 171.60526057451352,220.72887518849984 171.57329362772361,219.85809461074223 171.73073084066345,219.37374900874602 171.97048294158594,219.01240833185875 173.2907178439891,217.95057409188666 173.7286650150054,217.497120704792 174.02116257813032,217.05042491404674 174.48548248024963,216.09105998351606 175.1176288530114,215.23238040441174 175.33260657016945,214.85437744488445 175.5132198195315,214.32708228422598 175.57795288678244,213.79490581998562 175.54278924531172,213.3131056773591 175.3813561640236,212.6742157592962 175.3501883909048,212.11866043807822 175.4388966682418,211.32355850027216 175.20234126200376,210.38387991261789 174.91623708824045,208.42174258299656 174.9274255196142,207.8852968431347 175.13600984741424,207.31874041906758 175.45567931530968,206.80065575062326 175.57875206044992,206.26701319628955 175.49963386714808,205.52276550348597 175.1903536569589,204.55135597008484 175.24469746649993,204.337843696836 175.46606857301595,204.17382361406544 176.23487364330504,203.47014933272476 177.29457792937683,202.65963462513628 177.4983672151575,202.7246729420067 177.74291435809937,202.7460286928881 177.77248378387958,202.6615760750201 177.66939038048076,202.28783835852482 177.50955564653486,199.46725883610543 177.65500525442621,197.4820665853331 177.60465731323347,197.06049019809598 176.95093325138805,195.55273691885304 177.84680693516202,195.09996722352298 178.39344172526398,194.81041445586743 179.5130840365673,194.301242718926 180.12924693593231,194.03789889754626 180.11086594152948,194.01068945071165" stroke="red" stroke-linecap="round" stroke-linejoin="round" stroke-width="0.5"><title>2024-11-01 138.2km</title><desc>1730367175580</desc></polyline></svg>